PathFileType	4	(X/Y/Z)	/Users/itak/Documents/Research/Walk-IL/dataset/trc/00023_00004.trc
DataRate	CameraRate	NumFrames	NumMarkers	Units	OrigDataRate	OrigDataStartFrame	OrigNumFrames
100.000000	100.000000	4	53	mm	100.000000	527	844
Frame#	Time	RPSI			LPSI			L3			STRN			T10			C7			CLAV			RBAK			LBAK			LSHO			LUPA			LAEL			LAOL			LWTS			LWPS			LFRA			LIFD			LHPS			LHTS			RSHO			RUPA			RAEL			RAOL			RWTS			RWPS			RFRA			RIFD			RHTS			RHPS			RBHD			LFHD			RFHD			LBHD			LHIP			RHIP			RASI			LASI			LKNE			LTHI			LANK			LTIP			LTOE			LMT1			LMT5			LHEE			RKNE			RTHI			RANK			RTIP			RTOE			RMT1			RMT5			RHEE			
		X1	Y1	Z1	X2	Y2	Z2	X3	Y3	Z3	X4	Y4	Z4	X5	Y5	Z5	X6	Y6	Z6	X7	Y7	Z7	X8	Y8	Z8	X9	Y9	Z9	X10	Y10	Z10	X11	Y11	Z11	X12	Y12	Z12	X13	Y13	Z13	X14	Y14	Z14	X15	Y15	Z15	X16	Y16	Z16	X17	Y17	Z17	X18	Y18	Z18	X19	Y19	Z19	X20	Y20	Z20	X21	Y21	Z21	X22	Y22	Z22	X23	Y23	Z23	X24	Y24	Z24	X25	Y25	Z25	X26	Y26	Z26	X27	Y27	Z27	X28	Y28	Z28	X29	Y29	Z29	X30	Y30	Z30	X31	Y31	Z31	X32	Y32	Z32	X33	Y33	Z33	X34	Y34	Z34	X35	Y35	Z35	X36	Y36	Z36	X37	Y37	Z37	X38	Y38	Z38	X39	Y39	Z39	X40	Y40	Z40	X41	Y41	Z41	X42	Y42	Z42	X43	Y43	Z43	X44	Y44	Z44	X45	Y45	Z45	X46	Y46	Z46	X47	Y47	Z47	X48	Y48	Z48	X49	Y49	Z49	X50	Y50	Z50	X51	Y51	Z51	X52	Y52	Z52	X53	Y53	Z53	

528	5.27	-209.5325622558594	1027.103271484375	-625.4566650390625	-77.15334320068359	1013.865966796875	-531.2036743164062	-125.7989807128906	1090.073120117188	-576.7640991210938	-261.7655334472656	1275.799194335938	-393.5131225585938	-96.23724365234375	1232.996704101562	-586.6874389648438	-118.3617553710938	1499.03466796875	-527.3722534179688	-227.3414001464844	1401.576049804688	-418.2786254882812	-140.4996490478516	1367.995239257812	-629.6331787109375	-34.54079818725586	1455.10888671875	-480.1583251953125	-46.56747055053711	1456.03955078125	-355.4907531738281	37.34578323364258	1334.578857421875	-334.918212890625	68.40730285644531	1119.757690429688	-330.5701904296875	38.40755462646484	1107.925537109375	-432.0280456542969	-69.73151397705078	894.30517578125	-276.6416931152344	7.091132164001465	860.3316650390625	-305.0997314453125	50.31160354614258	1007.331848144531	-307.9378662109375	-136.355712890625	717.6430053710938	-250.6400299072266	-32.18376541137695	779.7793579101562	-271.9234008789062	-91.75936126708984	803.9878540039062	-242.6722869873047	-293.4498596191406	1485.689331054688	-589.5573120117188	-337.3951416015625	1424.782958984375	-654.463134765625	-353.6548767089844	1166.53466796875	-728.5543823242188	-284.6969604492188	1126.172729492188	-669.2235717773438	-436.9360961914062	894.8452758789062	-650.885498046875	-441.3326721191406	895.2058715820312	-742.8646850585938	-380.1826171875	1093.434936523438	-739.23779296875	-451.4052734375	706.1678466796875	-658.5125122070312	-474.3844299316406	785.1766357421875	-653.4827270507812	-475.3415832519531	793.668701171875	-728.3753662109375	-121.0995864868164	1673.34765625	-444.4468994140625	-281.0297546386719	1648.736206054688	-297.6759948730469	-185.2377471923828	1640.415161132812	-277.5264892578125	-263.2876281738281	1680.653442382812	-469.4004211425781	-49.69501876831055	914.138916015625	-389.2500915527344	-369.5137329101562	928.4998779296875	-588.0408325195312	-358.4660339355469	964.4828491210938	-463.4314880371094	-165.680419921875	962.2225952148438	-328.8513793945312	-106.1266326904297	474.9996032714844	-453.4035949707031	-71.35289764404297	612.9795532226562	-415.8720703125	64.37129211425781	49.03094482421875	-647.7149047851562	8.102842330932617	266.3015747070312	-547.3796997070312	-162.7105102539062	33.79434967041016	-656.4021606445312	-110.1030654907227	46.43085479736328	-681.5155029296875	-49.92951583862305	35.66757202148438	-593.86767578125	114.4087982177734	78.03496551513672	-715.083740234375	-469.4476928710938	537.7875366210938	-433.4000244140625	-423.017333984375	783.6541748046875	-535.6715698242188	-572.1077270507812	54.55229187011719	-371.1522216796875	-500.5663757324219	421.6121520996094	-419.5420532226562	-635.7991943359375	144.16162109375	-164.6627655029297	-580.860595703125	120.9406890869141	-202.4893188476562	-657.9057006835938	106.2316360473633	-259.7986145019531	-508.2581481933594	32.30206680297852	-393.7939758300781	
529	5.28	-220.29296875	1026.225830078125	-619.490478515625	-86.66732025146484	1013.112731933594	-527.1980590820312	-135.7895202636719	1089.110961914062	-572.1641845703125	-269.1569213867188	1274.992919921875	-387.1341552734375	-106.0734634399414	1232.010986328125	-582.449951171875	-127.3529510498047	1498.065795898438	-522.9279174804688	-234.9693145751953	1400.72314453125	-412.4309387207031	-150.7924652099609	1367.011596679688	-624.8876953125	-42.84823989868164	1454.171020507812	-476.7556762695312	-53.36914825439453	1455.076782226562	-351.9416809082031	30.71915626525879	1333.500610351562	-332.5010986328125	61.68459701538086	1118.581420898438	-328.9471435546875	30.35217475891113	1107.139770507812	-430.0482788085938	-72.48445129394531	890.49609375	-275.2810668945312	4.357922554016113	858.0235595703125	-305.4081115722656	45.34827041625977	1005.667663574219	-307.1650085449219	-135.9494781494141	712.6153564453125	-250.0698089599609	-33.1071891784668	776.5421142578125	-272.457763671875	-92.61659240722656	799.5355224609375	-241.9311370849609	-303.1389770507812	1484.779663085938	-582.9679565429688	-348.0202941894531	1423.866088867188	-647.2098388671875	-366.6301879882812	1165.296508789062	-720.1360473632812	-296.7569274902344	1124.985229492188	-661.9241943359375	-450.344970703125	894.8976440429688	-638.22900390625	-456.4049377441406	894.2781982421875	-730.1686401367188	-393.8042907714844	1092.149780273438	-729.78955078125	-466.3292846679688	706.27099609375	-643.55322265625	-488.7359008789062	785.5054931640625	-638.9849243164062	-490.8291625976562	793.1878051757812	-713.949462890625	-128.9601745605469	1672.446044921875	-439.517333984375	-287.6376342773438	1647.799194335938	-291.3915100097656	-191.7609100341797	1639.490844726562	-272.1253662109375	-271.3778991699219	1679.77392578125	-463.2581787109375	-56.85856246948242	913.7540893554688	-385.8047790527344	-379.5890502929688	927.6276245117188	-579.6953125	-366.7664184570312	963.7216186523438	-455.3377075195312	-172.0241088867188	961.4293212890625	-323.4864807128906	-111.0282745361328	474.2222290039062	-449.356689453125	-76.74943542480469	612.6616821289062	-411.9156494140625	63.9236946105957	51.18772888183594	-647.2791748046875	5.378108501434326	267.5308837890625	-545.15869140625	-162.9502716064453	33.76130294799805	-656.2759399414062	-110.5556335449219	46.99230575561523	-681.2048950195312	-50.38080215454102	35.7697639465332	-593.5518798828125	113.4356079101562	81.65620422363281	-714.3912353515625	-476.4355163574219	537.30078125	-422.3974914550781	-431.9095764160156	782.9573974609375	-525.5811767578125	-574.3684692382812	52.43162536621094	-363.5206604003906	-506.7931213378906	420.1049499511719	-408.507568359375	-636.0247192382812	138.1937255859375	-154.9931030273438	-581.464111328125	115.8404006958008	-193.7848815917969	-658.97900390625	101.7741165161133	-250.4652709960938	-510.7143249511719	31.14912033081055	-387.28173828125	
530	5.29	-231.1379699707031	1025.520629882812	-613.2304077148438	-96.32483673095703	1012.453247070312	-522.889892578125	-145.9126434326172	1088.193969726562	-567.2859497070312	-276.6429138183594	1274.333740234375	-380.6538696289062	-116.0631103515625	1231.062255859375	-578.0413208007812	-136.4138641357422	1497.18359375	-518.4476928710938	-242.6844482421875	1399.9990234375	-406.5195617675781	-161.196533203125	1366.079223632812	-620.0274658203125	-51.25595855712891	1453.316284179688	-473.2659912109375	-60.27672576904297	1454.215942382812	-348.3568725585938	23.93949127197266	1332.507568359375	-330.0129699707031	54.78023147583008	1117.496948242188	-327.2246398925781	22.11186027526855	1106.450805664062	-427.9473876953125	-75.18932342529297	886.6717529296875	-274.0741271972656	1.632649421691895	855.8192138671875	-305.9037170410156	40.26974105834961	1004.106567382812	-306.3967590332031	-135.3054504394531	707.5399169921875	-249.9004058837891	-33.95645523071289	773.3638916015625	-273.309814453125	-93.36083984375	795.044921875	-241.4924926757812	-312.8755798339844	1483.987426757812	-576.3170776367188	-358.714111328125	1423.03076171875	-639.8567504882812	-379.6331787109375	1164.112670898438	-711.4690551757812	-308.8048706054688	1123.911499023438	-654.4141845703125	-463.7312927246094	895.1173706054688	-625.1827392578125	-471.4308166503906	893.4578857421875	-717.0386962890625	-407.4436950683594	1090.927978515625	-720.0418701171875	-481.2852172851562	706.587890625	-628.03125	-503.0558471679688	786.0405883789062	-624.002197265625	-506.2850646972656	792.8680419921875	-699.0133666992188	-136.8783721923828	1671.679321289062	-434.5359497070312	-294.2369995117188	1646.966186523438	-285.0224304199219	-198.2736968994141	1638.655029296875	-266.6605834960938	-279.5158996582031	1679.044677734375	-457.017578125	-64.21535491943359	913.3634643554688	-382.0980834960938	-389.7814331054688	926.9580688476562	-571.1011352539062	-375.2064819335938	963.1243896484375	-447.0354309082031	-178.5739593505859	960.722900390625	-317.8959655761719	-116.3334426879883	473.4533081054688	-444.9957580566406	-82.50600433349609	612.317138671875	-407.6855163574219	63.41146087646484	53.59255218505859	-646.7350463867188	2.402649879455566	268.9186706542969	-542.740478515625	-163.1892242431641	33.72904205322266	-656.15869140625	-111.0409774780273	47.58470916748047	-680.8665161132812	-50.88840103149414	35.87775421142578	-593.1986083984375	112.3148574829102	85.62364959716797	-713.5072021484375	-483.2840881347656	536.87744140625	-411.4293823242188	-440.8310241699219	782.4105224609375	-515.3765869140625	-576.0077514648438	50.36283493041992	-357.1446228027344	-512.7772827148438	418.6074829101562	-397.6196594238281	-635.8274536132812	130.8920593261719	-146.2544250488281	-581.59814453125	109.7540130615234	-186.0462036132812	-659.5336303710938	96.49419403076172	-242.2268676757812	-512.4998779296875	30.40536117553711	-382.07421875	
531	5.3	-242.019775390625	1025.030517578125	-606.7113647460938	-106.0696716308594	1011.911560058594	-518.2659912109375	-156.1422424316406	1087.34912109375	-562.1131591796875	-284.212890625	1273.844604492188	-374.0756530761719	-126.2145614624023	1230.178955078125	-573.467529296875	-145.5343322753906	1496.417236328125	-513.9334716796875	-250.4795532226562	1399.422485351562	-400.5478820800781	-171.7084655761719	1365.227416992188	-615.0558471679688	-59.78137588500977	1452.56005859375	-469.6898498535156	-67.28251647949219	1453.473266601562	-344.7379455566406	17.01437950134277	1331.61328125	-327.4615478515625	47.71001052856445	1116.520263671875	-325.4102172851562	13.69248580932617	1105.872436523438	-425.7296142578125	-77.85163116455078	882.8772583007812	-273.0265808105469	-1.098431944847107	853.7592163085938	-306.5886535644531	35.08025360107422	1002.675964355469	-305.6378784179688	-134.4467620849609	702.47998046875	-250.1469116210938	-34.75256729125977	770.2946166992188	-274.484130859375	-93.98978424072266	790.5653686523438	-241.3611755371094	-322.6616821289062	1483.331909179688	-569.6077880859375	-369.4807434082031	1422.297119140625	-632.40673828125	-392.6572875976562	1162.995483398438	-702.5404663085938	-320.8537292480469	1122.9580078125	-646.6583251953125	-477.0931701660156	895.5187377929688	-611.7666625976562	-486.3705749511719	892.7615966796875	-703.4918212890625	-421.0915832519531	1089.787109375	-709.9871826171875	-496.2392272949219	707.1358032226562	-611.9755249023438	-517.3074951171875	786.7910766601562	-608.5692138671875	-521.67041015625	792.7236938476562	-683.60302734375	-144.8459014892578	1671.072509765625	-429.5018615722656	-300.8251953125	1646.259765625	-278.5712280273438	-204.7696228027344	1637.925415039062	-261.1365966796875	-287.6918640136719	1678.497680664062	-450.6766052246094	-71.77074432373047	912.9519653320312	-378.0951843261719	-400.0781555175781	926.54833984375	-562.285888671875	-383.7538452148438	962.7197875976562	-438.5387268066406	-185.3187103271484	960.1226806640625	-312.0621948242188	-122.0668869018555	472.71533203125	-440.2780456542969	-88.64952850341797	611.948486328125	-403.1453247070312	62.78965759277344	56.25442886352539	-646.0673828125	-0.8689268827438354	270.4596862792969	-540.0899047851562	-163.4264373779297	33.69950485229492	-656.0546875	-111.5686492919922	48.20159912109375	-680.4992065429688	-51.45477294921875	35.98152923583984	-592.81640625	111.0187835693359	89.99735260009766	-712.431396484375	-490.0314025878906	536.5919189453125	-400.5201110839844	-449.7548828125	782.0525512695312	-505.1080322265625	-577.281982421875	48.49970626831055	-351.9322204589844	-518.601318359375	417.2412414550781	-386.8839111328125	-635.3644409179688	122.4661483764648	-138.4010620117188	-581.4362182617188	102.8882217407227	-179.2232055664062	-659.7760620117188	90.57177734375	-234.9952545166016	-513.8845825195312	30.21766090393066	-378.0754699707031	
